<mxfile host="app.diagrams.net" modified="2023-12-03T12:56:28.465Z" agent="Mozilla/5.0 (Windows NT 10.0; Win64; x64) AppleWebKit/537.36 (KHTML, like Gecko) Chrome/118.0.0.0 Safari/537.36 OPR/104.0.0.0" etag="QTxglFXQJSmR0r00HcZV" version="22.1.5" type="device">
  <diagram name="Page-1" id="DLiEjsSnvPwBr1glW4-z">
    <mxGraphModel dx="1967" dy="1320" grid="1" gridSize="10" guides="1" tooltips="1" connect="1" arrows="1" fold="1" page="1" pageScale="1" pageWidth="850" pageHeight="1100" math="0" shadow="0">
      <root>
        <mxCell id="0" />
        <mxCell id="1" parent="0" />
        <mxCell id="3WwaebRsQVo44cyUnCi0-45" style="orthogonalLoop=1;jettySize=auto;html=1;exitX=1;exitY=0.5;exitDx=0;exitDy=0;entryX=0;entryY=0.5;entryDx=0;entryDy=0;" edge="1" parent="1" source="3WwaebRsQVo44cyUnCi0-2" target="3WwaebRsQVo44cyUnCi0-14">
          <mxGeometry relative="1" as="geometry" />
        </mxCell>
        <mxCell id="3WwaebRsQVo44cyUnCi0-2" value="" style="ellipse;whiteSpace=wrap;html=1;aspect=fixed;rounded=0;" vertex="1" parent="1">
          <mxGeometry x="400" y="280" width="80" height="80" as="geometry" />
        </mxCell>
        <mxCell id="3WwaebRsQVo44cyUnCi0-46" style="orthogonalLoop=1;jettySize=auto;html=1;exitX=1;exitY=0.5;exitDx=0;exitDy=0;entryX=0;entryY=0.5;entryDx=0;entryDy=0;" edge="1" parent="1" source="3WwaebRsQVo44cyUnCi0-3" target="3WwaebRsQVo44cyUnCi0-14">
          <mxGeometry relative="1" as="geometry" />
        </mxCell>
        <mxCell id="3WwaebRsQVo44cyUnCi0-3" value="" style="ellipse;whiteSpace=wrap;html=1;aspect=fixed;rounded=0;" vertex="1" parent="1">
          <mxGeometry x="400" y="400" width="80" height="80" as="geometry" />
        </mxCell>
        <mxCell id="3WwaebRsQVo44cyUnCi0-47" style="orthogonalLoop=1;jettySize=auto;html=1;exitX=1;exitY=0.5;exitDx=0;exitDy=0;entryX=0;entryY=0.5;entryDx=0;entryDy=0;" edge="1" parent="1" source="3WwaebRsQVo44cyUnCi0-4" target="3WwaebRsQVo44cyUnCi0-14">
          <mxGeometry relative="1" as="geometry" />
        </mxCell>
        <mxCell id="3WwaebRsQVo44cyUnCi0-4" value="" style="ellipse;whiteSpace=wrap;html=1;aspect=fixed;rounded=0;" vertex="1" parent="1">
          <mxGeometry x="400" y="520" width="80" height="80" as="geometry" />
        </mxCell>
        <mxCell id="3WwaebRsQVo44cyUnCi0-48" style="orthogonalLoop=1;jettySize=auto;html=1;exitX=1;exitY=0.5;exitDx=0;exitDy=0;entryX=0;entryY=0.5;entryDx=0;entryDy=0;" edge="1" parent="1" source="3WwaebRsQVo44cyUnCi0-5" target="3WwaebRsQVo44cyUnCi0-14">
          <mxGeometry relative="1" as="geometry" />
        </mxCell>
        <mxCell id="3WwaebRsQVo44cyUnCi0-5" value="" style="ellipse;whiteSpace=wrap;html=1;aspect=fixed;rounded=0;" vertex="1" parent="1">
          <mxGeometry x="400" y="640" width="80" height="80" as="geometry" />
        </mxCell>
        <mxCell id="3WwaebRsQVo44cyUnCi0-49" style="orthogonalLoop=1;jettySize=auto;html=1;exitX=1;exitY=0.5;exitDx=0;exitDy=0;entryX=0;entryY=0.5;entryDx=0;entryDy=0;" edge="1" parent="1" source="3WwaebRsQVo44cyUnCi0-6" target="3WwaebRsQVo44cyUnCi0-14">
          <mxGeometry relative="1" as="geometry" />
        </mxCell>
        <mxCell id="3WwaebRsQVo44cyUnCi0-6" value="" style="ellipse;whiteSpace=wrap;html=1;aspect=fixed;rounded=0;" vertex="1" parent="1">
          <mxGeometry x="400" y="760" width="80" height="80" as="geometry" />
        </mxCell>
        <mxCell id="3WwaebRsQVo44cyUnCi0-50" style="orthogonalLoop=1;jettySize=auto;html=1;exitX=1;exitY=0.5;exitDx=0;exitDy=0;entryX=0;entryY=0.5;entryDx=0;entryDy=0;" edge="1" parent="1" source="3WwaebRsQVo44cyUnCi0-7" target="3WwaebRsQVo44cyUnCi0-14">
          <mxGeometry relative="1" as="geometry" />
        </mxCell>
        <mxCell id="3WwaebRsQVo44cyUnCi0-7" value="" style="ellipse;whiteSpace=wrap;html=1;aspect=fixed;rounded=0;" vertex="1" parent="1">
          <mxGeometry x="400" y="880" width="80" height="80" as="geometry" />
        </mxCell>
        <mxCell id="3WwaebRsQVo44cyUnCi0-51" style="orthogonalLoop=1;jettySize=auto;html=1;exitX=1;exitY=0.5;exitDx=0;exitDy=0;entryX=0;entryY=0.5;entryDx=0;entryDy=0;" edge="1" parent="1" source="3WwaebRsQVo44cyUnCi0-8" target="3WwaebRsQVo44cyUnCi0-14">
          <mxGeometry relative="1" as="geometry" />
        </mxCell>
        <mxCell id="3WwaebRsQVo44cyUnCi0-8" value="" style="ellipse;whiteSpace=wrap;html=1;aspect=fixed;rounded=0;" vertex="1" parent="1">
          <mxGeometry x="400" y="1000" width="80" height="80" as="geometry" />
        </mxCell>
        <mxCell id="3WwaebRsQVo44cyUnCi0-52" style="orthogonalLoop=1;jettySize=auto;html=1;exitX=1;exitY=0.5;exitDx=0;exitDy=0;entryX=0;entryY=0.5;entryDx=0;entryDy=0;" edge="1" parent="1" source="3WwaebRsQVo44cyUnCi0-9" target="3WwaebRsQVo44cyUnCi0-14">
          <mxGeometry relative="1" as="geometry" />
        </mxCell>
        <mxCell id="3WwaebRsQVo44cyUnCi0-9" value="" style="ellipse;whiteSpace=wrap;html=1;aspect=fixed;rounded=0;" vertex="1" parent="1">
          <mxGeometry x="400" y="1120" width="80" height="80" as="geometry" />
        </mxCell>
        <mxCell id="3WwaebRsQVo44cyUnCi0-53" style="orthogonalLoop=1;jettySize=auto;html=1;exitX=1;exitY=0.5;exitDx=0;exitDy=0;entryX=0;entryY=0.5;entryDx=0;entryDy=0;" edge="1" parent="1" source="3WwaebRsQVo44cyUnCi0-10" target="3WwaebRsQVo44cyUnCi0-14">
          <mxGeometry relative="1" as="geometry" />
        </mxCell>
        <mxCell id="3WwaebRsQVo44cyUnCi0-10" value="" style="ellipse;whiteSpace=wrap;html=1;aspect=fixed;rounded=0;" vertex="1" parent="1">
          <mxGeometry x="400" y="1240" width="80" height="80" as="geometry" />
        </mxCell>
        <mxCell id="3WwaebRsQVo44cyUnCi0-16" style="edgeStyle=orthogonalEdgeStyle;rounded=0;orthogonalLoop=1;jettySize=auto;html=1;exitX=1;exitY=0.5;exitDx=0;exitDy=0;entryX=0;entryY=0.5;entryDx=0;entryDy=0;" edge="1" parent="1" source="3WwaebRsQVo44cyUnCi0-11" target="3WwaebRsQVo44cyUnCi0-2">
          <mxGeometry relative="1" as="geometry" />
        </mxCell>
        <mxCell id="3WwaebRsQVo44cyUnCi0-17" style="rounded=0;orthogonalLoop=1;jettySize=auto;html=1;exitX=1;exitY=0.5;exitDx=0;exitDy=0;entryX=0;entryY=0.5;entryDx=0;entryDy=0;" edge="1" parent="1" source="3WwaebRsQVo44cyUnCi0-11" target="3WwaebRsQVo44cyUnCi0-3">
          <mxGeometry relative="1" as="geometry" />
        </mxCell>
        <mxCell id="3WwaebRsQVo44cyUnCi0-18" style="rounded=0;orthogonalLoop=1;jettySize=auto;html=1;exitX=1;exitY=0.5;exitDx=0;exitDy=0;entryX=0;entryY=0.5;entryDx=0;entryDy=0;" edge="1" parent="1" source="3WwaebRsQVo44cyUnCi0-11" target="3WwaebRsQVo44cyUnCi0-4">
          <mxGeometry relative="1" as="geometry" />
        </mxCell>
        <mxCell id="3WwaebRsQVo44cyUnCi0-19" style="rounded=0;orthogonalLoop=1;jettySize=auto;html=1;exitX=1;exitY=0.5;exitDx=0;exitDy=0;entryX=0;entryY=0.5;entryDx=0;entryDy=0;" edge="1" parent="1" source="3WwaebRsQVo44cyUnCi0-11" target="3WwaebRsQVo44cyUnCi0-5">
          <mxGeometry relative="1" as="geometry" />
        </mxCell>
        <mxCell id="3WwaebRsQVo44cyUnCi0-20" style="rounded=0;orthogonalLoop=1;jettySize=auto;html=1;exitX=1;exitY=0.5;exitDx=0;exitDy=0;entryX=0;entryY=0.5;entryDx=0;entryDy=0;" edge="1" parent="1" source="3WwaebRsQVo44cyUnCi0-11" target="3WwaebRsQVo44cyUnCi0-6">
          <mxGeometry relative="1" as="geometry" />
        </mxCell>
        <mxCell id="3WwaebRsQVo44cyUnCi0-21" style="rounded=0;orthogonalLoop=1;jettySize=auto;html=1;exitX=1;exitY=0.5;exitDx=0;exitDy=0;entryX=0;entryY=0.5;entryDx=0;entryDy=0;" edge="1" parent="1" source="3WwaebRsQVo44cyUnCi0-11" target="3WwaebRsQVo44cyUnCi0-7">
          <mxGeometry relative="1" as="geometry" />
        </mxCell>
        <mxCell id="3WwaebRsQVo44cyUnCi0-22" style="rounded=0;orthogonalLoop=1;jettySize=auto;html=1;exitX=1;exitY=0.5;exitDx=0;exitDy=0;entryX=0;entryY=0.5;entryDx=0;entryDy=0;" edge="1" parent="1" source="3WwaebRsQVo44cyUnCi0-11" target="3WwaebRsQVo44cyUnCi0-8">
          <mxGeometry relative="1" as="geometry" />
        </mxCell>
        <mxCell id="3WwaebRsQVo44cyUnCi0-23" style="rounded=0;orthogonalLoop=1;jettySize=auto;html=1;exitX=1;exitY=0.5;exitDx=0;exitDy=0;entryX=0;entryY=0.5;entryDx=0;entryDy=0;" edge="1" parent="1" source="3WwaebRsQVo44cyUnCi0-11" target="3WwaebRsQVo44cyUnCi0-9">
          <mxGeometry relative="1" as="geometry" />
        </mxCell>
        <mxCell id="3WwaebRsQVo44cyUnCi0-24" style="rounded=0;orthogonalLoop=1;jettySize=auto;html=1;exitX=1;exitY=0.5;exitDx=0;exitDy=0;entryX=0;entryY=0.5;entryDx=0;entryDy=0;" edge="1" parent="1" source="3WwaebRsQVo44cyUnCi0-11" target="3WwaebRsQVo44cyUnCi0-10">
          <mxGeometry relative="1" as="geometry" />
        </mxCell>
        <mxCell id="3WwaebRsQVo44cyUnCi0-11" value="" style="ellipse;whiteSpace=wrap;html=1;aspect=fixed;rounded=0;" vertex="1" parent="1">
          <mxGeometry x="80" y="280" width="80" height="80" as="geometry" />
        </mxCell>
        <mxCell id="3WwaebRsQVo44cyUnCi0-26" style="rounded=0;orthogonalLoop=1;jettySize=auto;html=1;exitX=1;exitY=0.5;exitDx=0;exitDy=0;entryX=0;entryY=0.5;entryDx=0;entryDy=0;" edge="1" parent="1" source="3WwaebRsQVo44cyUnCi0-12" target="3WwaebRsQVo44cyUnCi0-2">
          <mxGeometry relative="1" as="geometry" />
        </mxCell>
        <mxCell id="3WwaebRsQVo44cyUnCi0-27" style="rounded=0;orthogonalLoop=1;jettySize=auto;html=1;exitX=1;exitY=0.5;exitDx=0;exitDy=0;" edge="1" parent="1" source="3WwaebRsQVo44cyUnCi0-12" target="3WwaebRsQVo44cyUnCi0-3">
          <mxGeometry relative="1" as="geometry" />
        </mxCell>
        <mxCell id="3WwaebRsQVo44cyUnCi0-28" style="rounded=0;orthogonalLoop=1;jettySize=auto;html=1;exitX=1;exitY=0.5;exitDx=0;exitDy=0;entryX=0;entryY=0.5;entryDx=0;entryDy=0;" edge="1" parent="1" source="3WwaebRsQVo44cyUnCi0-12" target="3WwaebRsQVo44cyUnCi0-4">
          <mxGeometry relative="1" as="geometry" />
        </mxCell>
        <mxCell id="3WwaebRsQVo44cyUnCi0-29" style="rounded=0;orthogonalLoop=1;jettySize=auto;html=1;exitX=1;exitY=0.5;exitDx=0;exitDy=0;entryX=0;entryY=0.5;entryDx=0;entryDy=0;" edge="1" parent="1" source="3WwaebRsQVo44cyUnCi0-12" target="3WwaebRsQVo44cyUnCi0-5">
          <mxGeometry relative="1" as="geometry" />
        </mxCell>
        <mxCell id="3WwaebRsQVo44cyUnCi0-30" style="rounded=0;orthogonalLoop=1;jettySize=auto;html=1;exitX=1;exitY=0.5;exitDx=0;exitDy=0;entryX=0;entryY=0.5;entryDx=0;entryDy=0;" edge="1" parent="1" source="3WwaebRsQVo44cyUnCi0-12" target="3WwaebRsQVo44cyUnCi0-6">
          <mxGeometry relative="1" as="geometry" />
        </mxCell>
        <mxCell id="3WwaebRsQVo44cyUnCi0-31" style="rounded=0;orthogonalLoop=1;jettySize=auto;html=1;exitX=1;exitY=0.5;exitDx=0;exitDy=0;entryX=0;entryY=0.5;entryDx=0;entryDy=0;" edge="1" parent="1" source="3WwaebRsQVo44cyUnCi0-12" target="3WwaebRsQVo44cyUnCi0-7">
          <mxGeometry relative="1" as="geometry" />
        </mxCell>
        <mxCell id="3WwaebRsQVo44cyUnCi0-32" style="rounded=0;orthogonalLoop=1;jettySize=auto;html=1;exitX=1;exitY=0.5;exitDx=0;exitDy=0;entryX=0;entryY=0.5;entryDx=0;entryDy=0;" edge="1" parent="1" source="3WwaebRsQVo44cyUnCi0-12" target="3WwaebRsQVo44cyUnCi0-8">
          <mxGeometry relative="1" as="geometry" />
        </mxCell>
        <mxCell id="3WwaebRsQVo44cyUnCi0-33" style="rounded=0;orthogonalLoop=1;jettySize=auto;html=1;exitX=1;exitY=0.5;exitDx=0;exitDy=0;entryX=0;entryY=0.5;entryDx=0;entryDy=0;" edge="1" parent="1" source="3WwaebRsQVo44cyUnCi0-12" target="3WwaebRsQVo44cyUnCi0-9">
          <mxGeometry relative="1" as="geometry" />
        </mxCell>
        <mxCell id="3WwaebRsQVo44cyUnCi0-34" style="rounded=0;orthogonalLoop=1;jettySize=auto;html=1;exitX=1;exitY=0.5;exitDx=0;exitDy=0;entryX=0;entryY=0.5;entryDx=0;entryDy=0;" edge="1" parent="1" source="3WwaebRsQVo44cyUnCi0-12" target="3WwaebRsQVo44cyUnCi0-10">
          <mxGeometry relative="1" as="geometry" />
        </mxCell>
        <mxCell id="3WwaebRsQVo44cyUnCi0-12" value="" style="ellipse;whiteSpace=wrap;html=1;aspect=fixed;rounded=0;" vertex="1" parent="1">
          <mxGeometry x="80" y="400" width="80" height="80" as="geometry" />
        </mxCell>
        <mxCell id="3WwaebRsQVo44cyUnCi0-36" style="orthogonalLoop=1;jettySize=auto;html=1;exitX=1;exitY=0.5;exitDx=0;exitDy=0;entryX=0;entryY=0.5;entryDx=0;entryDy=0;" edge="1" parent="1" source="3WwaebRsQVo44cyUnCi0-13" target="3WwaebRsQVo44cyUnCi0-2">
          <mxGeometry relative="1" as="geometry" />
        </mxCell>
        <mxCell id="3WwaebRsQVo44cyUnCi0-37" style="orthogonalLoop=1;jettySize=auto;html=1;exitX=1;exitY=0.5;exitDx=0;exitDy=0;entryX=0;entryY=0.5;entryDx=0;entryDy=0;" edge="1" parent="1" source="3WwaebRsQVo44cyUnCi0-13" target="3WwaebRsQVo44cyUnCi0-3">
          <mxGeometry relative="1" as="geometry" />
        </mxCell>
        <mxCell id="3WwaebRsQVo44cyUnCi0-38" style="orthogonalLoop=1;jettySize=auto;html=1;exitX=1;exitY=0.5;exitDx=0;exitDy=0;entryX=0;entryY=0.5;entryDx=0;entryDy=0;" edge="1" parent="1" source="3WwaebRsQVo44cyUnCi0-13" target="3WwaebRsQVo44cyUnCi0-4">
          <mxGeometry relative="1" as="geometry" />
        </mxCell>
        <mxCell id="3WwaebRsQVo44cyUnCi0-39" style="orthogonalLoop=1;jettySize=auto;html=1;exitX=1;exitY=0.5;exitDx=0;exitDy=0;entryX=0;entryY=0.5;entryDx=0;entryDy=0;" edge="1" parent="1" source="3WwaebRsQVo44cyUnCi0-13" target="3WwaebRsQVo44cyUnCi0-5">
          <mxGeometry relative="1" as="geometry" />
        </mxCell>
        <mxCell id="3WwaebRsQVo44cyUnCi0-40" style="orthogonalLoop=1;jettySize=auto;html=1;exitX=1;exitY=0.5;exitDx=0;exitDy=0;entryX=0;entryY=0.5;entryDx=0;entryDy=0;" edge="1" parent="1" source="3WwaebRsQVo44cyUnCi0-13" target="3WwaebRsQVo44cyUnCi0-6">
          <mxGeometry relative="1" as="geometry" />
        </mxCell>
        <mxCell id="3WwaebRsQVo44cyUnCi0-41" style="orthogonalLoop=1;jettySize=auto;html=1;exitX=1;exitY=0.5;exitDx=0;exitDy=0;entryX=0;entryY=0.5;entryDx=0;entryDy=0;" edge="1" parent="1" source="3WwaebRsQVo44cyUnCi0-13" target="3WwaebRsQVo44cyUnCi0-7">
          <mxGeometry relative="1" as="geometry" />
        </mxCell>
        <mxCell id="3WwaebRsQVo44cyUnCi0-42" style="orthogonalLoop=1;jettySize=auto;html=1;exitX=1;exitY=0.5;exitDx=0;exitDy=0;entryX=0;entryY=0.5;entryDx=0;entryDy=0;" edge="1" parent="1" source="3WwaebRsQVo44cyUnCi0-13" target="3WwaebRsQVo44cyUnCi0-8">
          <mxGeometry relative="1" as="geometry" />
        </mxCell>
        <mxCell id="3WwaebRsQVo44cyUnCi0-43" style="orthogonalLoop=1;jettySize=auto;html=1;exitX=1;exitY=0.5;exitDx=0;exitDy=0;entryX=0;entryY=0.5;entryDx=0;entryDy=0;" edge="1" parent="1" source="3WwaebRsQVo44cyUnCi0-13" target="3WwaebRsQVo44cyUnCi0-9">
          <mxGeometry relative="1" as="geometry" />
        </mxCell>
        <mxCell id="3WwaebRsQVo44cyUnCi0-44" style="orthogonalLoop=1;jettySize=auto;html=1;exitX=1;exitY=0.5;exitDx=0;exitDy=0;entryX=0;entryY=0.5;entryDx=0;entryDy=0;" edge="1" parent="1" source="3WwaebRsQVo44cyUnCi0-13" target="3WwaebRsQVo44cyUnCi0-10">
          <mxGeometry relative="1" as="geometry" />
        </mxCell>
        <mxCell id="3WwaebRsQVo44cyUnCi0-13" value="" style="ellipse;whiteSpace=wrap;html=1;aspect=fixed;rounded=0;" vertex="1" parent="1">
          <mxGeometry x="80" y="1240" width="80" height="80" as="geometry" />
        </mxCell>
        <mxCell id="3WwaebRsQVo44cyUnCi0-14" value="" style="ellipse;whiteSpace=wrap;html=1;aspect=fixed;rounded=0;" vertex="1" parent="1">
          <mxGeometry x="720" y="760" width="80" height="80" as="geometry" />
        </mxCell>
        <mxCell id="3WwaebRsQVo44cyUnCi0-35" value="" style="endArrow=none;dashed=1;html=1;dashPattern=1 3;strokeWidth=9;rounded=0;" edge="1" parent="1">
          <mxGeometry width="50" height="50" relative="1" as="geometry">
            <mxPoint x="119.38" y="1210" as="sourcePoint" />
            <mxPoint x="119" y="510" as="targetPoint" />
          </mxGeometry>
        </mxCell>
        <mxCell id="3WwaebRsQVo44cyUnCi0-54" value="Input Layer&lt;br&gt;&lt;br&gt;i" style="text;html=1;strokeColor=none;fillColor=none;align=center;verticalAlign=middle;whiteSpace=wrap;rounded=0;fontSize=24;fontStyle=1" vertex="1" parent="1">
          <mxGeometry x="80" y="120" width="80" height="120" as="geometry" />
        </mxCell>
        <mxCell id="3WwaebRsQVo44cyUnCi0-58" value="Hidden Layer&lt;br&gt;&lt;br&gt;h" style="text;html=1;strokeColor=none;fillColor=none;align=center;verticalAlign=middle;whiteSpace=wrap;rounded=0;fontSize=24;fontStyle=1" vertex="1" parent="1">
          <mxGeometry x="400" y="120" width="80" height="120" as="geometry" />
        </mxCell>
        <mxCell id="3WwaebRsQVo44cyUnCi0-59" value="Output Layer&lt;br&gt;&lt;br&gt;o" style="text;html=1;strokeColor=none;fillColor=none;align=center;verticalAlign=middle;whiteSpace=wrap;rounded=0;fontSize=24;fontStyle=1" vertex="1" parent="1">
          <mxGeometry x="720" y="120" width="80" height="120" as="geometry" />
        </mxCell>
        <mxCell id="3WwaebRsQVo44cyUnCi0-60" value="Relu" style="text;html=1;strokeColor=none;fillColor=none;align=center;verticalAlign=middle;whiteSpace=wrap;rounded=0;fontSize=24;fontStyle=1" vertex="1" parent="1">
          <mxGeometry x="400" y="1360" width="80" height="120" as="geometry" />
        </mxCell>
        <mxCell id="3WwaebRsQVo44cyUnCi0-61" value="Sigmoid" style="text;html=1;strokeColor=none;fillColor=none;align=center;verticalAlign=middle;whiteSpace=wrap;rounded=0;fontSize=24;fontStyle=1" vertex="1" parent="1">
          <mxGeometry x="720" y="1360" width="80" height="120" as="geometry" />
        </mxCell>
        <mxCell id="3WwaebRsQVo44cyUnCi0-64" value="" style="shape=curlyBracket;whiteSpace=wrap;html=1;rounded=1;labelPosition=left;verticalLabelPosition=middle;align=right;verticalAlign=middle;rotation=-90;" vertex="1" parent="1">
          <mxGeometry x="430" y="1310" width="20" height="120" as="geometry" />
        </mxCell>
        <mxCell id="3WwaebRsQVo44cyUnCi0-65" value="" style="shape=curlyBracket;whiteSpace=wrap;html=1;rounded=1;labelPosition=left;verticalLabelPosition=middle;align=right;verticalAlign=middle;rotation=-90;" vertex="1" parent="1">
          <mxGeometry x="750" y="1310" width="20" height="120" as="geometry" />
        </mxCell>
        <mxCell id="3WwaebRsQVo44cyUnCi0-67" value="i&lt;sub&gt;1&lt;/sub&gt;" style="text;html=1;strokeColor=none;fillColor=none;align=center;verticalAlign=middle;whiteSpace=wrap;rounded=0;fontSize=24;fontStyle=1" vertex="1" parent="1">
          <mxGeometry x="80" y="280" width="80" height="80" as="geometry" />
        </mxCell>
        <mxCell id="3WwaebRsQVo44cyUnCi0-68" value="i&lt;span style=&quot;font-size: 20px;&quot;&gt;&lt;sub&gt;2&lt;/sub&gt;&lt;/span&gt;" style="text;html=1;strokeColor=none;fillColor=none;align=center;verticalAlign=middle;whiteSpace=wrap;rounded=0;fontSize=24;fontStyle=1" vertex="1" parent="1">
          <mxGeometry x="80" y="400" width="80" height="80" as="geometry" />
        </mxCell>
        <mxCell id="3WwaebRsQVo44cyUnCi0-69" value="i&lt;sub&gt;k&lt;/sub&gt;" style="text;html=1;strokeColor=none;fillColor=none;align=center;verticalAlign=middle;whiteSpace=wrap;rounded=0;fontSize=24;fontStyle=1" vertex="1" parent="1">
          <mxGeometry x="80" y="1240" width="80" height="80" as="geometry" />
        </mxCell>
        <mxCell id="3WwaebRsQVo44cyUnCi0-70" value="h&lt;sub&gt;1&lt;/sub&gt;" style="text;html=1;strokeColor=none;fillColor=none;align=center;verticalAlign=middle;whiteSpace=wrap;rounded=0;fontSize=24;fontStyle=1" vertex="1" parent="1">
          <mxGeometry x="400" y="280" width="80" height="80" as="geometry" />
        </mxCell>
        <mxCell id="3WwaebRsQVo44cyUnCi0-71" value="h&lt;sub style=&quot;border-color: var(--border-color);&quot;&gt;2&lt;/sub&gt;" style="text;html=1;strokeColor=none;fillColor=none;align=center;verticalAlign=middle;whiteSpace=wrap;rounded=0;fontSize=24;fontStyle=1" vertex="1" parent="1">
          <mxGeometry x="400" y="400" width="80" height="80" as="geometry" />
        </mxCell>
        <mxCell id="3WwaebRsQVo44cyUnCi0-72" value="h&lt;sub style=&quot;border-color: var(--border-color);&quot;&gt;3&lt;/sub&gt;" style="text;html=1;strokeColor=none;fillColor=none;align=center;verticalAlign=middle;whiteSpace=wrap;rounded=0;fontSize=24;fontStyle=1" vertex="1" parent="1">
          <mxGeometry x="400" y="520" width="80" height="80" as="geometry" />
        </mxCell>
        <mxCell id="3WwaebRsQVo44cyUnCi0-73" value="h&lt;sub style=&quot;border-color: var(--border-color);&quot;&gt;4&lt;/sub&gt;" style="text;html=1;strokeColor=none;fillColor=none;align=center;verticalAlign=middle;whiteSpace=wrap;rounded=0;fontSize=24;fontStyle=1" vertex="1" parent="1">
          <mxGeometry x="400" y="640" width="80" height="80" as="geometry" />
        </mxCell>
        <mxCell id="3WwaebRsQVo44cyUnCi0-74" value="h&lt;sub style=&quot;border-color: var(--border-color);&quot;&gt;5&lt;/sub&gt;" style="text;html=1;strokeColor=none;fillColor=none;align=center;verticalAlign=middle;whiteSpace=wrap;rounded=0;fontSize=24;fontStyle=1" vertex="1" parent="1">
          <mxGeometry x="400" y="760" width="80" height="80" as="geometry" />
        </mxCell>
        <mxCell id="3WwaebRsQVo44cyUnCi0-75" value="h&lt;sub&gt;6&lt;/sub&gt;" style="text;html=1;strokeColor=none;fillColor=none;align=center;verticalAlign=middle;whiteSpace=wrap;rounded=0;fontSize=24;fontStyle=1" vertex="1" parent="1">
          <mxGeometry x="400" y="880" width="80" height="80" as="geometry" />
        </mxCell>
        <mxCell id="3WwaebRsQVo44cyUnCi0-76" value="h&lt;sub&gt;7&lt;/sub&gt;" style="text;html=1;strokeColor=none;fillColor=none;align=center;verticalAlign=middle;whiteSpace=wrap;rounded=0;fontSize=24;fontStyle=1" vertex="1" parent="1">
          <mxGeometry x="400" y="1000" width="80" height="80" as="geometry" />
        </mxCell>
        <mxCell id="3WwaebRsQVo44cyUnCi0-77" value="h&lt;sub&gt;8&lt;/sub&gt;" style="text;html=1;strokeColor=none;fillColor=none;align=center;verticalAlign=middle;whiteSpace=wrap;rounded=0;fontSize=24;fontStyle=1" vertex="1" parent="1">
          <mxGeometry x="400" y="1120" width="80" height="80" as="geometry" />
        </mxCell>
        <mxCell id="3WwaebRsQVo44cyUnCi0-78" value="h&lt;sub&gt;9&lt;/sub&gt;" style="text;html=1;strokeColor=none;fillColor=none;align=center;verticalAlign=middle;whiteSpace=wrap;rounded=0;fontSize=24;fontStyle=1" vertex="1" parent="1">
          <mxGeometry x="400" y="1240" width="80" height="80" as="geometry" />
        </mxCell>
        <mxCell id="3WwaebRsQVo44cyUnCi0-80" value="o&lt;sub&gt;1&lt;/sub&gt;" style="text;html=1;strokeColor=none;fillColor=none;align=center;verticalAlign=middle;whiteSpace=wrap;rounded=0;fontSize=24;fontStyle=1" vertex="1" parent="1">
          <mxGeometry x="720" y="760" width="80" height="80" as="geometry" />
        </mxCell>
      </root>
    </mxGraphModel>
  </diagram>
</mxfile>
